<mxfile host="Electron" agent="Mozilla/5.0 (Windows NT 10.0; Win64; x64) AppleWebKit/537.36 (KHTML, like Gecko) draw.io/28.2.8 Chrome/140.0.7339.240 Electron/38.4.0 Safari/537.36" version="28.2.8">
  <diagram name="Page-1" id="SrlommiyDTUKbWcrkzDM">
    <mxGraphModel dx="1426" dy="841" grid="1" gridSize="10" guides="1" tooltips="1" connect="1" arrows="1" fold="1" page="1" pageScale="1" pageWidth="850" pageHeight="1100" math="0" shadow="0">
      <root>
        <mxCell id="0" />
        <mxCell id="1" parent="0" />
        <mxCell id="x0KQVgalQclNj2CF-3GX-1" value="" style="rounded=0;whiteSpace=wrap;html=1;" parent="1" vertex="1">
          <mxGeometry x="150" y="290" width="550" height="340" as="geometry" />
        </mxCell>
        <mxCell id="x0KQVgalQclNj2CF-3GX-2" value="đặt hàng" style="ellipse;whiteSpace=wrap;html=1;" parent="1" vertex="1">
          <mxGeometry x="160" y="420" width="120" height="80" as="geometry" />
        </mxCell>
        <mxCell id="x0KQVgalQclNj2CF-3GX-3" value="kiểm tra giỏ hàng" style="ellipse;whiteSpace=wrap;html=1;" parent="1" vertex="1">
          <mxGeometry x="540" y="320" width="120" height="80" as="geometry" />
        </mxCell>
        <mxCell id="x0KQVgalQclNj2CF-3GX-4" value="tính phí vận chuyển" style="ellipse;whiteSpace=wrap;html=1;" parent="1" vertex="1">
          <mxGeometry x="540" y="510" width="120" height="80" as="geometry" />
        </mxCell>
        <mxCell id="x0KQVgalQclNj2CF-3GX-5" value="" style="endArrow=classic;html=1;rounded=0;exitX=1;exitY=0.5;exitDx=0;exitDy=0;entryX=0;entryY=1;entryDx=0;entryDy=0;dashed=1;" parent="1" source="x0KQVgalQclNj2CF-3GX-2" target="x0KQVgalQclNj2CF-3GX-3" edge="1">
          <mxGeometry width="50" height="50" relative="1" as="geometry">
            <mxPoint x="440" y="480" as="sourcePoint" />
            <mxPoint x="490" y="430" as="targetPoint" />
          </mxGeometry>
        </mxCell>
        <mxCell id="x0KQVgalQclNj2CF-3GX-6" value="" style="endArrow=classic;html=1;rounded=0;exitX=1;exitY=0.5;exitDx=0;exitDy=0;entryX=0;entryY=0;entryDx=0;entryDy=0;dashed=1;" parent="1" source="x0KQVgalQclNj2CF-3GX-2" target="x0KQVgalQclNj2CF-3GX-4" edge="1">
          <mxGeometry width="50" height="50" relative="1" as="geometry">
            <mxPoint x="370" y="542" as="sourcePoint" />
            <mxPoint x="648" y="470" as="targetPoint" />
          </mxGeometry>
        </mxCell>
        <mxCell id="x0KQVgalQclNj2CF-3GX-7" value="&amp;lt;&amp;lt;include&amp;gt;&amp;gt;" style="text;html=1;whiteSpace=wrap;strokeColor=none;fillColor=none;align=center;verticalAlign=middle;rounded=0;rotation=10;" parent="1" vertex="1">
          <mxGeometry x="420" y="500" width="60" height="30" as="geometry" />
        </mxCell>
        <mxCell id="x0KQVgalQclNj2CF-3GX-8" value="&amp;lt;&amp;lt;include&amp;gt;&amp;gt;" style="text;html=1;whiteSpace=wrap;strokeColor=none;fillColor=none;align=center;verticalAlign=middle;rounded=0;rotation=-15;" parent="1" vertex="1">
          <mxGeometry x="394.9989552553702" y="390.001561625191" width="60" height="30" as="geometry" />
        </mxCell>
        <mxCell id="Uwi2c4UzzB1r27HYyWGP-1" value="người dùng&lt;div&gt;&lt;br&gt;&lt;/div&gt;" style="shape=umlActor;verticalLabelPosition=bottom;verticalAlign=top;html=1;outlineConnect=0;" vertex="1" parent="1">
          <mxGeometry x="40" y="420" width="30" height="60" as="geometry" />
        </mxCell>
        <mxCell id="Uwi2c4UzzB1r27HYyWGP-2" value="" style="endArrow=none;html=1;rounded=0;exitX=0.5;exitY=0.5;exitDx=0;exitDy=0;exitPerimeter=0;entryX=0;entryY=0.5;entryDx=0;entryDy=0;" edge="1" parent="1" source="Uwi2c4UzzB1r27HYyWGP-1" target="x0KQVgalQclNj2CF-3GX-2">
          <mxGeometry width="50" height="50" relative="1" as="geometry">
            <mxPoint x="400" y="460" as="sourcePoint" />
            <mxPoint x="450" y="410" as="targetPoint" />
          </mxGeometry>
        </mxCell>
      </root>
    </mxGraphModel>
  </diagram>
</mxfile>
